{"title":"A.Madea.Christmas.2013.CAM.XviD-2LOW [P2PDL]","uid":9387612,"size":1219344817,"categoryP":"video","categoryS":"movies","magnet":"?xt=urn:btih:20c28ba90f7a6c2ffea7870b037cda175b99c5d8&amp;dn=A.Madea.Christmas.2013.CAM.XviD-2LOW+%5BP2PDL%5D&amp;tr=udp%3A%2F%2Ftracker.openbittorrent.com%3A80&amp;tr=udp%3A%2F%2Fopen.demonii.com%3A1337&amp;tr=udp%3A%2F%2Ftracker.coppersurfer.tk%3A6969&amp;tr=udp%3A%2F%2Fexodus.desync.com%3A6969","seeders":2,"leechers":0,"uploader":"ValidusVyto","files":8,"time":1387824738,"description":"A.Madea.Christmas.2013.CAM.XviD-2LOW\n\nInfo:\nGeneral\nComplete name                            : A.Madea.Christmas.2013.CAM.XviD-2LOW/AMC-2LOW.avi\nFormat                                   : AVI\nFormat/Info                              : Audio Video Interleave\nFile size                                : 1.12 GiB\nDuration                                 : 1h 33mn\nOverall bit rate                         : 1 715 Kbps\nWriting library                          : VirtualDub build 32842/release\n\nVideo\nID                                       : 0\nFormat                                   : MPEG-4 Visual\nFormat profile                           : Advanced Simple@L5\nFormat settings, BVOP                    : 2\nFormat settings, QPel                    : No\nFormat settings, GMC                     : No warppoints\nFormat settings, Matrix                  : Default (H.263)\nMuxing mode                              : Packed bitstream\nCodec ID                                 : XVID\nCodec ID/Hint                            : XviD\nDuration                                 : 1h 33mn\nBit rate                                 : 1 511 Kbps\nWidth                                    : 720 pixels\nHeight                                   : 384 pixels\nDisplay aspect ratio                     : 1.85:1\nFrame rate                               : 29.970 fps\nColor space                              : YUV\nChroma subsampling                       : 4:2:0\nBit depth                                : 8 bits\nScan type                                : Progressive\nCompression mode                         : Lossy\nBits/(Pixel*Frame)                       : 0.182\nStream size                              : 1 010 MiB (88%)\nWriting library                          : XviD 64\n\nAudio\nID                                       : 1\nFormat                                   : MPEG Audio\nFormat version                           : Version 1\nFormat profile                           : Layer 3\nCodec ID                                 : 55\nCodec ID/Hint                            : MP3\nDuration                                 : 1h 33mn\nBit rate mode                            : Constant\nBit rate                                 : 192 Kbps\nChannel(s)                               : 2 channels\nSampling rate                            : 48.0 KHz\nCompression mode                         : Lossy\nDelay relative to video                  : 18ms\nStream size                              : 128 MiB (11%)\nAlignment                                : Split accross interleaves\nInterleave, duration                     : 33 ms (1.00 video frame)\nInterleave, preload duration             : 500 ms\n\n\n","torrent":{"xt":"urn:btih:20c28ba90f7a6c2ffea7870b037cda175b99c5d8","amp;dn":"A.Madea.Christmas.2013.CAM.XviD-2LOW+%5BP2PDL%5D","amp;tr":["udp%3A%2F%2Ftracker.openbittorrent.com%3A80","udp%3A%2F%2Fopen.demonii.com%3A1337","udp%3A%2F%2Ftracker.coppersurfer.tk%3A6969","udp%3A%2F%2Fexodus.desync.com%3A6969"],"infoHash":"20c28ba90f7a6c2ffea7870b037cda175b99c5d8","infoHashBuffer":{"type":"Buffer","data":[32,194,139,169,15,122,108,47,254,167,135,11,3,124,218,23,91,153,197,216]},"announce":[],"urlList":[]}}